<mxfile host="65bd71144e">
    <diagram id="I1ei_-l4coOqPOdoU-y1" name="Page-1">
        <mxGraphModel dx="1145" dy="658" grid="1" gridSize="10" guides="1" tooltips="1" connect="1" arrows="1" fold="1" page="1" pageScale="1" pageWidth="850" pageHeight="1100" math="0" shadow="0">
            <root>
                <mxCell id="0"/>
                <mxCell id="1" parent="0"/>
                <mxCell id="5" style="edgeStyle=none;html=1;entryX=0.992;entryY=0.101;entryDx=0;entryDy=0;entryPerimeter=0;" edge="1" parent="1" source="2" target="4">
                    <mxGeometry relative="1" as="geometry"/>
                </mxCell>
                <mxCell id="7" style="edgeStyle=none;html=1;entryX=0;entryY=0;entryDx=0;entryDy=0;" edge="1" parent="1" source="2" target="6">
                    <mxGeometry relative="1" as="geometry"/>
                </mxCell>
                <mxCell id="2" value="page load" style="rounded=1;whiteSpace=wrap;html=1;" vertex="1" parent="1">
                    <mxGeometry x="130" y="10" width="90" height="40" as="geometry"/>
                </mxCell>
                <mxCell id="56" style="edgeStyle=none;html=1;entryX=0.5;entryY=0;entryDx=0;entryDy=0;fontSize=14;" edge="1" parent="1" source="4" target="55">
                    <mxGeometry relative="1" as="geometry"/>
                </mxCell>
                <mxCell id="4" value="dispatch&lt;br&gt;(setFixedVariables)" style="rounded=1;whiteSpace=wrap;html=1;" vertex="1" parent="1">
                    <mxGeometry x="40" y="70" width="105" height="40" as="geometry"/>
                </mxCell>
                <mxCell id="12" style="edgeStyle=none;html=1;exitX=1;exitY=0.5;exitDx=0;exitDy=0;entryX=0;entryY=0.5;entryDx=0;entryDy=0;" edge="1" parent="1" source="6" target="11">
                    <mxGeometry relative="1" as="geometry"/>
                </mxCell>
                <mxCell id="6" value="CheckDuplicate" style="rounded=1;whiteSpace=wrap;html=1;" vertex="1" parent="1">
                    <mxGeometry x="380" y="80" width="90" height="40" as="geometry"/>
                </mxCell>
                <mxCell id="38" style="edgeStyle=none;html=1;exitX=0.25;exitY=1;exitDx=0;exitDy=0;entryX=0.5;entryY=0;entryDx=0;entryDy=0;" edge="1" parent="1" source="11" target="37">
                    <mxGeometry relative="1" as="geometry"/>
                </mxCell>
                <mxCell id="57" style="edgeStyle=none;html=1;entryX=0;entryY=0;entryDx=0;entryDy=0;fontSize=14;" edge="1" parent="1" source="11" target="15">
                    <mxGeometry relative="1" as="geometry"/>
                </mxCell>
                <mxCell id="11" value="Checks to see if any items in cart match current selection of size + color" style="rounded=1;whiteSpace=wrap;html=1;" vertex="1" parent="1">
                    <mxGeometry x="500" y="70" width="120" height="60" as="geometry"/>
                </mxCell>
                <mxCell id="19" style="edgeStyle=none;html=1;entryX=0.5;entryY=0;entryDx=0;entryDy=0;" edge="1" parent="1" source="15" target="16">
                    <mxGeometry relative="1" as="geometry"/>
                </mxCell>
                <mxCell id="20" style="edgeStyle=none;html=1;entryX=0.556;entryY=-0.008;entryDx=0;entryDy=0;entryPerimeter=0;" edge="1" parent="1" source="15" target="17">
                    <mxGeometry relative="1" as="geometry"/>
                </mxCell>
                <mxCell id="15" value="if match" style="rounded=1;whiteSpace=wrap;html=1;" vertex="1" parent="1">
                    <mxGeometry x="630" y="180" width="90" height="40" as="geometry"/>
                </mxCell>
                <mxCell id="34" style="edgeStyle=none;html=1;entryX=0.36;entryY=-0.038;entryDx=0;entryDy=0;entryPerimeter=0;" edge="1" parent="1" source="16" target="23">
                    <mxGeometry relative="1" as="geometry"/>
                </mxCell>
                <mxCell id="16" value="set cart.update.id for PUT request" style="rounded=1;whiteSpace=wrap;html=1;fillColor=#60a917;fontColor=#ffffff;strokeColor=#2D7600;" vertex="1" parent="1">
                    <mxGeometry x="580" y="240" width="100" height="50" as="geometry"/>
                </mxCell>
                <mxCell id="33" style="edgeStyle=none;html=1;exitX=0.5;exitY=1;exitDx=0;exitDy=0;entryX=0.456;entryY=-0.026;entryDx=0;entryDy=0;entryPerimeter=0;" edge="1" parent="1" source="17" target="32">
                    <mxGeometry relative="1" as="geometry"/>
                </mxCell>
                <mxCell id="17" value="set cart.duplicate to duplicate item" style="rounded=1;whiteSpace=wrap;html=1;fillColor=#60a917;fontColor=#ffffff;strokeColor=#2D7600;" vertex="1" parent="1">
                    <mxGeometry x="700" y="240" width="100" height="50" as="geometry"/>
                </mxCell>
                <mxCell id="49" style="edgeStyle=none;html=1;entryX=0.5;entryY=0;entryDx=0;entryDy=0;fontSize=14;" edge="1" parent="1" source="21">
                    <mxGeometry relative="1" as="geometry">
                        <mxPoint x="100" y="390" as="targetPoint"/>
                    </mxGeometry>
                </mxCell>
                <mxCell id="71" style="edgeStyle=none;html=1;entryX=0;entryY=0.5;entryDx=0;entryDy=0;fontSize=14;" edge="1" parent="1" source="21" target="51">
                    <mxGeometry relative="1" as="geometry"/>
                </mxCell>
                <mxCell id="21" value="input onChange" style="rounded=1;whiteSpace=wrap;html=1;" vertex="1" parent="1">
                    <mxGeometry x="80" y="270" width="120" height="60" as="geometry"/>
                </mxCell>
                <mxCell id="22" value="Button onClick" style="rounded=1;whiteSpace=wrap;html=1;" vertex="1" parent="1">
                    <mxGeometry x="620" y="650" width="120" height="60" as="geometry"/>
                </mxCell>
                <mxCell id="36" style="edgeStyle=none;html=1;entryX=0.5;entryY=0;entryDx=0;entryDy=0;" edge="1" parent="1" source="23" target="30">
                    <mxGeometry relative="1" as="geometry"/>
                </mxCell>
                <mxCell id="23" value="Duplicate is de-selected" style="rounded=1;whiteSpace=wrap;html=1;" vertex="1" parent="1">
                    <mxGeometry x="630" y="410" width="110" height="50" as="geometry"/>
                </mxCell>
                <mxCell id="30" value="Id, quantity, and duplicate are reset to null" style="rounded=1;whiteSpace=wrap;html=1;" vertex="1" parent="1">
                    <mxGeometry x="630" y="480" width="110" height="60" as="geometry"/>
                </mxCell>
                <mxCell id="35" style="edgeStyle=none;html=1;entryX=0.75;entryY=0;entryDx=0;entryDy=0;" edge="1" parent="1" source="32" target="23">
                    <mxGeometry relative="1" as="geometry"/>
                </mxCell>
                <mxCell id="32" value="cart.update.quanitity is set to current selection + quantity of duplicate" style="rounded=1;whiteSpace=wrap;html=1;fillColor=#60a917;fontColor=#ffffff;strokeColor=#2D7600;" vertex="1" parent="1">
                    <mxGeometry x="690" y="320" width="130" height="60" as="geometry"/>
                </mxCell>
                <mxCell id="73" style="edgeStyle=none;html=1;entryX=0.5;entryY=0;entryDx=0;entryDy=0;fontSize=14;" edge="1" parent="1" source="37" target="40">
                    <mxGeometry relative="1" as="geometry"/>
                </mxCell>
                <mxCell id="37" value="No match" style="rounded=1;whiteSpace=wrap;html=1;" vertex="1" parent="1">
                    <mxGeometry x="465" y="290" width="90" height="40" as="geometry"/>
                </mxCell>
                <mxCell id="40" value="set product.create.color, size, quantity" style="rounded=1;whiteSpace=wrap;html=1;fillColor=#1ba1e2;fontColor=#ffffff;strokeColor=#006EAF;" vertex="1" parent="1">
                    <mxGeometry x="450" y="390" width="120" height="60" as="geometry"/>
                </mxCell>
                <mxCell id="45" value="&lt;font&gt;&lt;div style=&quot;text-align: left&quot;&gt;&lt;span style=&quot;font-size: 11px&quot;&gt;&lt;br class=&quot;Apple-interchange-newline&quot;&gt;&lt;br&gt;&lt;/span&gt;&lt;/div&gt;&lt;/font&gt;&lt;div style=&quot;color: rgb(212 , 212 , 212) ; background-color: rgb(30 , 30 , 30) ; font-family: &amp;quot;consolas&amp;quot; , &amp;quot;courier new&amp;quot; , monospace ; font-weight: normal ; line-height: 24px ; font-size: 11px&quot;&gt;&lt;div style=&quot;text-align: left&quot;&gt;&lt;font style=&quot;font-size: 11px&quot;&gt;&lt;span style=&quot;color: rgb(86 , 156 , 214)&quot;&gt;const&lt;/span&gt;&lt;span style=&quot;color: rgb(212 , 212 , 212)&quot;&gt;&lt;span&gt;&amp;nbsp;&lt;/span&gt;&lt;/span&gt;&lt;span style=&quot;color: rgb(220 , 220 , 170)&quot;&gt;handleSubmit&lt;/span&gt;&lt;span style=&quot;color: rgb(212 , 212 , 212)&quot;&gt;&lt;span&gt;&amp;nbsp;&lt;/span&gt;= ()&lt;span&gt;&amp;nbsp;&lt;/span&gt;&lt;/span&gt;&lt;span style=&quot;color: rgb(86 , 156 , 214)&quot;&gt;=&amp;gt;&lt;/span&gt;&lt;span style=&quot;color: rgb(212 , 212 , 212)&quot;&gt;&lt;span&gt;&amp;nbsp;&lt;/span&gt;{&lt;/span&gt;&lt;/font&gt;&lt;/div&gt;&lt;div style=&quot;text-align: left&quot;&gt;&lt;font style=&quot;font-size: 11px&quot;&gt;&lt;span style=&quot;color: rgb(212 , 212 , 212)&quot;&gt;&amp;nbsp; &amp;nbsp;&lt;span&gt;&amp;nbsp;&lt;/span&gt;&lt;/span&gt;&lt;span style=&quot;color: rgb(197 , 134 , 192)&quot;&gt;if&lt;/span&gt;&lt;span style=&quot;color: rgb(212 , 212 , 212)&quot;&gt;&lt;span&gt;&amp;nbsp;&lt;/span&gt;(&lt;/span&gt;&lt;span style=&quot;color: rgb(79 , 193 , 255)&quot;&gt;CartDuplicate&lt;/span&gt;&lt;span style=&quot;color: rgb(212 , 212 , 212)&quot;&gt;) {&lt;/span&gt;&lt;/font&gt;&lt;/div&gt;&lt;div style=&quot;text-align: left&quot;&gt;&lt;font style=&quot;font-size: 11px&quot;&gt;&lt;span style=&quot;color: rgb(212 , 212 , 212)&quot;&gt;&amp;nbsp; &amp;nbsp; &amp;nbsp;&lt;span&gt;&amp;nbsp;&lt;/span&gt;&lt;/span&gt;&lt;span style=&quot;color: rgb(220 , 220 , 170)&quot;&gt;UpdateCartItem&lt;/span&gt;&lt;span style=&quot;color: rgb(212 , 212 , 212)&quot;&gt;(&lt;/span&gt;&lt;span style=&quot;color: rgb(79 , 193 , 255)&quot;&gt;UpdateOptions&lt;/span&gt;&lt;span style=&quot;color: rgb(212 , 212 , 212)&quot;&gt;)&lt;/span&gt;&lt;/font&gt;&lt;/div&gt;&lt;div style=&quot;text-align: left&quot;&gt;&lt;font style=&quot;font-size: 11px&quot;&gt;&lt;span style=&quot;color: rgb(212 , 212 , 212)&quot;&gt;&amp;nbsp; &amp;nbsp; &amp;nbsp;&lt;span&gt;&amp;nbsp;&lt;/span&gt;&lt;/span&gt;&lt;span style=&quot;color: rgb(220 , 220 , 170)&quot;&gt;dispatch&lt;/span&gt;&lt;span style=&quot;color: rgb(212 , 212 , 212)&quot;&gt;(&lt;/span&gt;&lt;span style=&quot;color: rgb(220 , 220 , 170)&quot;&gt;clearCart&lt;/span&gt;&lt;span style=&quot;color: rgb(212 , 212 , 212)&quot;&gt;())&lt;/span&gt;&lt;/font&gt;&lt;/div&gt;&lt;div style=&quot;text-align: left&quot;&gt;&lt;font style=&quot;font-size: 11px&quot;&gt;&lt;span style=&quot;color: rgb(212 , 212 , 212)&quot;&gt;&amp;nbsp; &amp;nbsp; }&lt;span&gt;&amp;nbsp;&lt;/span&gt;&lt;/span&gt;&lt;span style=&quot;color: rgb(197 , 134 , 192)&quot;&gt;else&lt;/span&gt;&lt;span style=&quot;color: rgb(212 , 212 , 212)&quot;&gt;&lt;span&gt;&amp;nbsp;&lt;/span&gt;{&lt;/span&gt;&lt;/font&gt;&lt;/div&gt;&lt;div style=&quot;text-align: left&quot;&gt;&lt;font style=&quot;font-size: 11px&quot;&gt;&lt;span style=&quot;color: rgb(212 , 212 , 212)&quot;&gt;&amp;nbsp; &amp;nbsp; &amp;nbsp;&lt;span&gt;&amp;nbsp;&lt;/span&gt;&lt;/span&gt;&lt;span style=&quot;color: rgb(220 , 220 , 170)&quot;&gt;createCartItem&lt;/span&gt;&lt;span style=&quot;color: rgb(212 , 212 , 212)&quot;&gt;({ ...&lt;/span&gt;&lt;span style=&quot;color: rgb(79 , 193 , 255)&quot;&gt;CreateOptions&lt;/span&gt;&lt;span style=&quot;color: rgb(212 , 212 , 212)&quot;&gt;&lt;span&gt;&amp;nbsp;&lt;/span&gt;})&lt;/span&gt;&lt;/font&gt;&lt;/div&gt;&lt;div style=&quot;text-align: left&quot;&gt;&lt;font style=&quot;font-size: 11px&quot;&gt;&lt;span style=&quot;color: rgb(212 , 212 , 212)&quot;&gt;&amp;nbsp; &amp;nbsp; &amp;nbsp;&lt;span&gt;&amp;nbsp;&lt;/span&gt;&lt;/span&gt;&lt;span style=&quot;color: rgb(220 , 220 , 170)&quot;&gt;dispatch&lt;/span&gt;&lt;span style=&quot;color: rgb(212 , 212 , 212)&quot;&gt;(&lt;/span&gt;&lt;span style=&quot;color: rgb(220 , 220 , 170)&quot;&gt;clearCart&lt;/span&gt;&lt;span style=&quot;color: rgb(212 , 212 , 212)&quot;&gt;())&lt;/span&gt;&lt;/font&gt;&lt;/div&gt;&lt;div style=&quot;text-align: left&quot;&gt;&lt;span style=&quot;color: rgb(212 , 212 , 212)&quot;&gt;&lt;font style=&quot;font-size: 11px&quot;&gt;&amp;nbsp; &amp;nbsp; }&lt;/font&gt;&lt;/span&gt;&lt;/div&gt;&lt;div style=&quot;text-align: left&quot;&gt;&lt;span style=&quot;color: rgb(212 , 212 , 212)&quot;&gt;&lt;font style=&quot;font-size: 11px&quot;&gt;&amp;nbsp; }&lt;/font&gt;&lt;/span&gt;&lt;/div&gt;&lt;/div&gt;&lt;font&gt;&lt;div style=&quot;text-align: left&quot;&gt;&lt;span style=&quot;font-size: 11px&quot;&gt;&lt;br&gt;&lt;/span&gt;&lt;/div&gt;&lt;/font&gt;&lt;div style=&quot;text-align: left&quot;&gt;&lt;br style=&quot;color: rgb(240, 240, 240); font-family: helvetica; font-size: 12px; font-style: normal; font-weight: 400; letter-spacing: normal; text-align: left; text-indent: 0px; text-transform: none; word-spacing: 0px; background-color: rgb(42, 42, 42);&quot;&gt;&#10;&#10;&lt;/div&gt;" style="text;whiteSpace=wrap;html=1;fontSize=11;" vertex="1" parent="1">
                    <mxGeometry x="575" y="690" width="220" height="260" as="geometry"/>
                </mxCell>
                <mxCell id="47" value="&lt;div style=&quot;color: rgb(212 , 212 , 212) ; background-color: rgb(30 , 30 , 30) ; font-family: &amp;#34;consolas&amp;#34; , &amp;#34;courier new&amp;#34; , monospace ; font-weight: normal ; font-size: 14px ; line-height: 24px&quot;&gt;&lt;div&gt;&lt;span style=&quot;color: #569cd6&quot;&gt;const&lt;/span&gt;&lt;span style=&quot;color: #d4d4d4&quot;&gt; &lt;/span&gt;&lt;span style=&quot;color: #dcdcaa&quot;&gt;handleUpdate&lt;/span&gt;&lt;span style=&quot;color: #d4d4d4&quot;&gt; = (&lt;/span&gt;&lt;span style=&quot;color: #9cdcfe&quot;&gt;e&lt;/span&gt;&lt;span style=&quot;color: #d4d4d4&quot;&gt;) &lt;/span&gt;&lt;span style=&quot;color: #569cd6&quot;&gt;=&amp;gt;&lt;/span&gt;&lt;span style=&quot;color: #d4d4d4&quot;&gt; {&lt;/span&gt;&lt;/div&gt;&lt;div&gt;&lt;span style=&quot;color: #d4d4d4&quot;&gt;&amp;nbsp; &amp;nbsp;&lt;/span&gt;&lt;/div&gt;&lt;div&gt;&lt;span style=&quot;color: #6a9955&quot;&gt;//set update quantity to the cart item's quantity plus selected quantity from UI&lt;/span&gt;&lt;/div&gt;&lt;div&gt;&lt;span style=&quot;color: #d4d4d4&quot;&gt;&amp;nbsp;&amp;nbsp;&lt;/span&gt;&lt;span style=&quot;color: #dcdcaa&quot;&gt;dispatch&lt;/span&gt;&lt;span style=&quot;color: #d4d4d4&quot;&gt;(&lt;/span&gt;&lt;span style=&quot;color: #dcdcaa&quot;&gt;setCartQuantity&lt;/span&gt;&lt;span style=&quot;color: #d4d4d4&quot;&gt;(&lt;/span&gt;&lt;span style=&quot;color: #4fc1ff&quot;&gt;CartDuplicate&lt;/span&gt;&lt;span style=&quot;color: #d4d4d4&quot;&gt;.&lt;/span&gt;&lt;span style=&quot;color: #9cdcfe&quot;&gt;quantity&lt;/span&gt;&lt;span style=&quot;color: #d4d4d4&quot;&gt; + &lt;/span&gt;&lt;span style=&quot;color: #dcdcaa&quot;&gt;parseInt&lt;/span&gt;&lt;span style=&quot;color: #d4d4d4&quot;&gt;(&lt;/span&gt;&lt;span style=&quot;color: #9cdcfe&quot;&gt;e&lt;/span&gt;&lt;span style=&quot;color: #d4d4d4&quot;&gt;.&lt;/span&gt;&lt;span style=&quot;color: #9cdcfe&quot;&gt;target&lt;/span&gt;&lt;span style=&quot;color: #d4d4d4&quot;&gt;.&lt;/span&gt;&lt;span style=&quot;color: #9cdcfe&quot;&gt;value&lt;/span&gt;&lt;span style=&quot;color: #d4d4d4&quot;&gt;)))&lt;/span&gt;&lt;/div&gt;&lt;div&gt;&lt;span style=&quot;color: #d4d4d4&quot;&gt;&lt;br&gt;&lt;/span&gt;&lt;/div&gt;&lt;div&gt;&lt;span style=&quot;color: #d4d4d4&quot;&gt;&amp;nbsp; &amp;nbsp; &lt;/span&gt;&lt;span style=&quot;color: #6a9955&quot;&gt;//set create options quantity also in case duplicate is de-selected&lt;/span&gt;&lt;/div&gt;&lt;div&gt;&lt;span style=&quot;color: #d4d4d4&quot;&gt;&amp;nbsp;&lt;/span&gt;&lt;span style=&quot;color: #dcdcaa&quot;&gt;dispatch&lt;/span&gt;&lt;span style=&quot;color: #d4d4d4&quot;&gt;(&lt;/span&gt;&lt;span style=&quot;color: #dcdcaa&quot;&gt;setQuantity&lt;/span&gt;&lt;span style=&quot;color: #d4d4d4&quot;&gt;(&lt;/span&gt;&lt;span style=&quot;color: #dcdcaa&quot;&gt;parseInt&lt;/span&gt;&lt;span style=&quot;color: #d4d4d4&quot;&gt;(&lt;/span&gt;&lt;span style=&quot;color: #9cdcfe&quot;&gt;e&lt;/span&gt;&lt;span style=&quot;color: #d4d4d4&quot;&gt;.&lt;/span&gt;&lt;span style=&quot;color: #9cdcfe&quot;&gt;target&lt;/span&gt;&lt;span style=&quot;color: #d4d4d4&quot;&gt;.&lt;/span&gt;&lt;span style=&quot;color: #9cdcfe&quot;&gt;value&lt;/span&gt;&lt;span style=&quot;color: #d4d4d4&quot;&gt;)))&lt;/span&gt;&lt;/div&gt;&lt;div&gt;&lt;span style=&quot;color: #d4d4d4&quot;&gt;&amp;nbsp; }&lt;/span&gt;&lt;/div&gt;&lt;/div&gt;" style="text;whiteSpace=wrap;html=1;fontSize=11;fillColor=#60a917;fontColor=#ffffff;strokeColor=#2D7600;" vertex="1" parent="1">
                    <mxGeometry x="20" y="500" width="400" height="280" as="geometry"/>
                </mxCell>
                <mxCell id="50" style="edgeStyle=none;html=1;exitX=0.5;exitY=1;exitDx=0;exitDy=0;entryX=0.177;entryY=-0.002;entryDx=0;entryDy=0;entryPerimeter=0;fontSize=14;" edge="1" parent="1" source="48" target="47">
                    <mxGeometry relative="1" as="geometry"/>
                </mxCell>
                <mxCell id="48" value="if duplicate is set" style="rounded=1;whiteSpace=wrap;html=1;fontSize=14;fillColor=#60a917;fontColor=#ffffff;strokeColor=#2D7600;" vertex="1" parent="1">
                    <mxGeometry x="50" y="390" width="120" height="60" as="geometry"/>
                </mxCell>
                <mxCell id="72" style="edgeStyle=none;html=1;exitX=0.5;exitY=1;exitDx=0;exitDy=0;entryX=0.456;entryY=0.007;entryDx=0;entryDy=0;entryPerimeter=0;fontSize=14;" edge="1" parent="1" source="51" target="53">
                    <mxGeometry relative="1" as="geometry"/>
                </mxCell>
                <mxCell id="51" value="no duplicate" style="rounded=1;whiteSpace=wrap;html=1;fontSize=14;" vertex="1" parent="1">
                    <mxGeometry x="260" y="295" width="120" height="60" as="geometry"/>
                </mxCell>
                <mxCell id="53" value="set product.create.quantity" style="rounded=1;whiteSpace=wrap;html=1;fontSize=14;fillColor=#1ba1e2;fontColor=#ffffff;strokeColor=#006EAF;" vertex="1" parent="1">
                    <mxGeometry x="250" y="400" width="150" height="50" as="geometry"/>
                </mxCell>
                <mxCell id="55" value="set product.create.name, price, category" style="rounded=1;whiteSpace=wrap;html=1;fontSize=14;fillColor=#1ba1e2;fontColor=#ffffff;strokeColor=#006EAF;" vertex="1" parent="1">
                    <mxGeometry x="32.5" y="140" width="147.5" height="80" as="geometry"/>
                </mxCell>
            </root>
        </mxGraphModel>
    </diagram>
</mxfile>